<svg xmlns="http://www.w3.org/2000/svg" xmlns:xlink="http://www.w3.org/1999/xlink" width="250" zoomAndPan="magnify" viewBox="0 0 187.5 187.499992" height="250" preserveAspectRatio="xMidYMid meet" version="1.2"><defs><clipPath id="bf2b04f1bb"><path d="M 121.175781 11.730469 L 187 11.730469 L 187 77.792969 L 121.175781 77.792969 Z M 121.175781 11.730469 "/></clipPath><clipPath id="3d41a776a9"><path d="M 17.453125 149.101562 L 175 149.101562 L 175 175.167969 L 17.453125 175.167969 Z M 17.453125 149.101562 "/></clipPath></defs><g id="c9297dc711"><g clip-rule="nonzero" clip-path="url(#bf2b04f1bb)"><path style=" stroke:none;fill-rule:nonzero;fill:#1d76cf;fill-opacity:1;" d="M 156.464844 11.769531 C 157.46875 12 158.476562 12.273438 159.480469 12.425781 C 167.722656 13.742188 174.375 17.683594 179.636719 24.105469 C 183.777344 29.128906 186.097656 34.890625 186.757812 41.386719 C 187.683594 50.589844 185.09375 58.628906 179.289062 65.746094 C 173.679688 72.589844 166.367188 76.417969 157.699219 77.269531 C 148.800781 78.15625 140.636719 75.914062 133.558594 70.152344 C 127.097656 64.894531 123.035156 58.167969 121.835938 50.007812 C 120.289062 39.644531 122.921875 30.40625 130.078125 22.558594 C 135.417969 16.679688 142.070312 13.507812 149.808594 12.15625 C 150.542969 12.039062 151.277344 11.882812 152.015625 11.730469 L 156.464844 11.730469 Z M 156.464844 11.769531 "/></g><path style=" stroke:none;fill-rule:nonzero;fill:#1d76cf;fill-opacity:1;" d="M 115.53125 36.515625 C 115.6875 38.292969 115.839844 39.878906 115.917969 41.503906 C 116.382812 51.867188 119.089844 61.53125 125.589844 69.765625 C 130.464844 75.953125 136.808594 80.167969 144.546875 82.140625 C 144.742188 82.179688 144.933594 82.332031 145.359375 82.527344 C 139.75 84.5 134.332031 86.355469 128.914062 88.289062 C 114.757812 93.273438 100.632812 98.261719 86.472656 103.253906 C 80.402344 105.378906 74.328125 107.464844 68.25 109.59375 C 53.9375 114.617188 39.621094 119.722656 25.269531 124.632812 C 19.777344 126.488281 14.125 126.914062 8.476562 125.097656 C 2.945312 123.320312 0.625 119.105469 0.160156 113.652344 C -0.148438 109.941406 0.273438 106.382812 1.707031 102.941406 C 3.949219 97.644531 7.664062 93.742188 12.695312 91.070312 C 22.445312 85.851562 32.269531 80.707031 42.058594 75.527344 C 47.707031 72.550781 53.359375 69.535156 59.003906 66.519531 C 68.058594 61.722656 77.074219 56.929688 86.125 52.097656 C 91.8125 49.078125 97.5 46.066406 103.1875 43.050781 C 106.980469 41.039062 110.769531 38.988281 114.5625 36.941406 C 114.796875 36.824219 115.066406 36.707031 115.492188 36.554688 Z M 115.53125 36.515625 "/><path style=" stroke:none;fill-rule:nonzero;fill:#1d76cf;fill-opacity:1;" d="M 174.648438 111.679688 C 174.648438 112.296875 174.722656 112.726562 174.722656 113.1875 L 174.722656 143.117188 C 174.722656 144.199219 174.609375 144.738281 173.292969 144.855469 C 168.339844 145.28125 163.386719 145.898438 158.4375 146.480469 C 153.136719 147.097656 147.796875 147.792969 142.496094 148.375 C 138.007812 148.875 133.480469 149.300781 128.992188 149.804688 C 124.429688 150.308594 119.824219 150.886719 115.257812 151.429688 C 111.582031 151.855469 107.90625 152.203125 104.234375 152.589844 C 100.480469 153.015625 96.726562 153.515625 92.976562 153.941406 C 89.300781 154.367188 85.625 154.714844 81.949219 155.101562 C 78.195312 155.527344 74.441406 156.027344 70.691406 156.417969 C 67.015625 156.839844 63.339844 157.191406 59.664062 157.574219 C 55.910156 158.003906 52.15625 158.464844 48.402344 158.890625 C 44.726562 159.316406 41.054688 159.664062 37.378906 160.050781 C 33.625 160.476562 29.875 160.941406 26.121094 161.367188 C 23.644531 161.636719 21.167969 161.867188 18.691406 162.101562 C 16.71875 158.660156 16.640625 152.085938 20.898438 150.152344 C 22.984375 149.226562 25.308594 148.761719 27.511719 148.179688 C 35.019531 146.285156 42.523438 144.507812 49.992188 142.613281 C 79.007812 135.382812 108.023438 128.113281 137.039062 120.84375 C 148.957031 117.867188 160.914062 114.929688 172.867188 111.992188 C 173.410156 111.875 173.910156 111.71875 174.609375 111.5625 Z M 174.648438 111.679688 "/><path style=" stroke:none;fill-rule:nonzero;fill:#1d76cf;fill-opacity:1;" d="M 175.84375 77.578125 L 175.84375 98.574219 C 175.84375 99.617188 175.769531 100.699219 175.613281 101.746094 C 175.148438 105.183594 173.097656 106.652344 169.964844 107.390625 C 164.277344 108.703125 158.628906 110.054688 152.980469 111.449219 C 126.015625 118.175781 99.046875 124.941406 72.121094 131.710938 C 54.941406 136 37.765625 140.292969 20.585938 144.625 C 19.582031 144.894531 19 144.699219 18.535156 143.8125 C 17.066406 141.066406 15.90625 138.28125 17.53125 135.152344 C 18.457031 133.371094 20.046875 132.445312 21.824219 131.789062 C 29.835938 128.808594 37.882812 125.792969 45.929688 122.933594 C 58.695312 118.371094 71.503906 113.882812 84.308594 109.398438 C 93.359375 106.226562 102.375 103.058594 111.429688 99.925781 C 124.234375 95.480469 137.039062 91.03125 149.847656 86.546875 C 158.011719 83.6875 166.175781 80.824219 174.375 78.003906 C 174.800781 77.847656 175.226562 77.769531 175.882812 77.617188 Z M 175.84375 77.578125 "/><g clip-rule="nonzero" clip-path="url(#3d41a776a9)"><path style=" stroke:none;fill-rule:nonzero;fill:#1d76cf;fill-opacity:1;" d="M 95.992188 175.167969 L 19.464844 175.167969 C 18.152344 175.167969 17.492188 174.5 17.492188 173.160156 L 17.492188 169.835938 C 17.53125 167.746094 18.730469 166.664062 20.78125 166.507812 C 24.222656 166.238281 27.667969 165.8125 31.109375 165.464844 C 34.089844 165.15625 37.070312 164.882812 40.085938 164.574219 C 44.070312 164.148438 48.058594 163.683594 52.039062 163.261719 C 54.980469 162.949219 57.921875 162.679688 60.863281 162.371094 C 64.652344 161.945312 68.484375 161.480469 72.277344 161.058594 C 75.140625 160.746094 77.964844 160.4375 80.824219 160.128906 C 84.578125 159.703125 88.332031 159.238281 92.085938 158.8125 C 94.949219 158.503906 97.773438 158.195312 100.632812 157.886719 C 104.503906 157.460938 108.335938 156.996094 112.203125 156.570312 C 115.761719 156.183594 119.359375 155.796875 122.960938 155.371094 C 126.710938 154.949219 130.464844 154.484375 134.214844 154.058594 C 137.777344 153.632812 141.375 153.285156 144.972656 152.859375 C 148.722656 152.433594 152.476562 151.96875 156.230469 151.546875 C 158.976562 151.234375 161.726562 150.925781 164.472656 150.617188 C 167.488281 150.269531 170.507812 149.921875 173.566406 149.570312 C 174.414062 149.457031 174.761719 149.726562 174.761719 150.578125 L 174.761719 173.96875 C 174.761719 174.78125 174.492188 175.207031 173.640625 175.128906 L 95.992188 175.128906 Z M 95.992188 175.167969 "/></g></g></svg>